<svg width="38" height="29" viewBox="0 0 38 29" fill="none" xmlns="http://www.w3.org/2000/svg">
<path d="M36.9374 10.0934C37.2291 9.87467 37.6666 10.0934 37.6666 10.458V25.333C37.6666 27.3018 36.0624 28.833 34.1666 28.833H3.83325C1.8645 28.833 0.333252 27.3018 0.333252 25.333V10.458C0.333252 10.0934 0.697835 9.87467 0.989502 10.0934C2.66659 11.4059 4.78117 13.0101 12.2187 18.4059C13.7499 19.4997 16.3749 21.9059 18.9999 21.9059C21.552 21.9059 24.2499 19.4997 25.7083 18.4059C33.1458 13.0101 35.2603 11.4059 36.9374 10.0934ZM18.9999 19.4997C17.2499 19.5726 14.8437 17.3851 13.6041 16.5101C3.90617 9.51009 3.177 8.85384 0.989502 7.10384C0.552002 6.81217 0.333252 6.30176 0.333252 5.71842V4.33301C0.333252 2.43717 1.8645 0.833006 3.83325 0.833006H34.1666C36.0624 0.833006 37.6666 2.43717 37.6666 4.33301V5.71842C37.6666 6.30176 37.3749 6.81217 36.9374 7.10384C34.7499 8.85384 34.0208 9.51009 24.3228 16.5101C23.0833 17.3851 20.677 19.5726 18.9999 19.4997Z" fill="#D90062"/>
</svg>
