<svg width="34" height="34" viewBox="0 0 34 34" fill="none" xmlns="http://www.w3.org/2000/svg">
<path d="M32.7499 11.5101C32.677 11.8747 32.3124 12.1663 31.8749 12.1663H26.1145L24.4374 21.4997H29.9062C30.4895 21.4997 30.8541 22.0101 30.7812 22.5934L30.2708 25.5101C30.1978 25.8747 29.8333 26.1663 29.3958 26.1663H23.6353L22.5416 32.5101C22.4687 32.8747 22.1041 33.1663 21.6666 33.1663H18.677C18.1666 33.1663 17.7291 32.7288 17.802 32.1455L18.8958 26.1663H11.677L10.5833 32.5101C10.5103 32.8747 10.1458 33.1663 9.70825 33.1663H6.79159C6.20825 33.1663 5.77075 32.7288 5.91659 32.1455L6.93742 26.1663H1.54159C0.958253 26.1663 0.520753 25.7288 0.666586 25.1455L1.177 22.2288C1.24992 21.8643 1.6145 21.4997 2.052 21.4997H7.81242L9.4895 12.1663H4.02075C3.43742 12.1663 3.07284 11.7288 3.14575 11.1455L3.65617 8.22884C3.72909 7.86426 4.09367 7.49967 4.53117 7.49967H10.2916L11.3853 1.22884C11.4583 0.864256 11.8228 0.499672 12.2603 0.499672H15.2499C15.7603 0.499672 16.1978 1.01009 16.1249 1.59342L15.0312 7.49967H22.2499L23.3437 1.22884C23.4166 0.864256 23.7812 0.499672 24.2187 0.499672H27.1353C27.7187 0.499672 28.1562 1.01009 28.0103 1.59342L26.9895 7.49967H32.3853C32.9687 7.49967 33.4062 8.01009 33.2603 8.59342L32.7499 11.5101ZM19.6978 21.4997L21.3749 12.1663H14.2291L12.552 21.4997H19.6978Z" fill="#D90062"/>
</svg>
