<svg width="43" height="34" viewBox="0 0 43 34" fill="none" xmlns="http://www.w3.org/2000/svg">
<path d="M21.4166 9.36442C21.5624 9.21859 21.7812 9.14567 21.9999 9.14567C22.1458 9.14567 22.3645 9.21859 22.5103 9.36442L35.9999 20.3748V32.3332C35.9999 32.9894 35.4166 33.4998 34.8333 33.4998H26.5937C26.0103 33.4998 25.427 32.9894 25.427 32.3332V25.3332C25.427 24.7498 24.9166 24.1665 24.2603 24.1665H19.5937C19.0103 24.1665 18.427 24.7498 18.427 25.3332V32.3332C18.427 32.9894 17.9166 33.4998 17.3333 33.4998H9.16659C8.51034 33.4998 7.99992 32.9894 7.99992 32.3332V20.4478L21.4166 9.36442ZM42.6353 16.8748C42.8541 17.0207 42.9999 17.3123 42.9999 17.5311C42.9999 17.7498 42.927 17.9686 42.7812 18.1144L40.8853 20.3748C40.7395 20.5936 40.5208 20.6665 40.2291 20.6665C40.0103 20.6665 39.7916 20.5936 39.6458 20.4478L22.5103 6.37484C22.3645 6.229 22.1458 6.15609 21.9999 6.15609C21.7812 6.15609 21.5624 6.229 21.4166 6.37484L4.28117 20.4478C4.13533 20.5936 3.91658 20.6665 3.69783 20.6665C3.40617 20.6665 3.18742 20.5936 3.04158 20.3748L1.14575 18.1144C1.07283 17.9686 0.927001 17.7498 0.927001 17.5311C0.927001 17.3123 1.07283 17.0207 1.29158 16.8748L19.7395 1.63525C20.3228 1.19775 21.1249 0.906085 21.9999 0.906085C22.802 0.906085 23.6041 1.19775 24.1874 1.63525L30.7499 7.03109V1.78109C30.7499 1.27067 31.1145 0.906085 31.6249 0.906085H35.7083C36.1458 0.906085 36.5833 1.27067 36.5833 1.78109V11.8436L42.6353 16.8748Z" fill="#D90062"/>
</svg>
