<svg width="38" height="38" viewBox="0 0 38 38" fill="none" xmlns="http://www.w3.org/2000/svg">
<path d="M36.2812 2.32275C37.0833 2.5415 37.6666 3.19775 37.6666 3.99984C37.6666 22.7394 22.4999 37.8332 3.83325 37.8332C2.95825 37.8332 2.302 37.3228 2.08325 36.5207L0.333252 28.9373C0.187419 28.1353 0.552002 27.2603 1.35409 26.8957L9.52075 23.3957C10.2499 23.104 11.052 23.3228 11.5624 23.9061L15.2083 28.354C20.8958 25.6561 25.4895 20.9894 28.1145 15.4478L23.6666 11.8019C23.0833 11.2915 22.8645 10.4894 23.1562 9.76025L26.6562 1.59359C27.0208 0.791502 27.8958 0.354002 28.6978 0.572752L36.2812 2.32275Z" fill="#D90062"/>
</svg>
